:FULLY-SPECIFIED
:FORCE-ALL-JOINTS-BE-3DOF
:DEGREES
162
root 8.24629 16.5753 -14.1584 8.0567 9.7167 -0.63535
lfemur -4.1327 8.03116 -13.8986
ltibia 52.1362 0 0
lfoot 3.367 12.1818 0
ltoes -12.1019 0 0
rfemur -30.2115 1.28937 23.296
rtibia 31.7527 0 0
rfoot -12.1375 0.052293 0
rtoes -14.4833 0 0
lowerback -5.09052 -2.15508 -0.776512
upperback -1.94415 -2.87735 3.55995
thorax 1.07273 -1.43025 3.92901
lowerneck -18.8118 -6.97124 -14.9976
upperneck 14.9181 -8.38867 14.8829
head 9.08778 -3.3745 6.4784
lclavicle 2.86043e-14 -9.14409e-15 0
lhumerus -43.7466 -9.93724 95.6097
lradius 23.9258 0 0
lwrist -0.0610367 0 0
lhand -0.890011 -17.9851 0
lfingers 7.12502 0 0
lthumb 24.7373 10.4323 0
rclavicle 2.86043e-14 -9.14409e-15 0
rhumerus -45.3948 8.19939 -81.5007
rradius 32.8275 0 0
rwrist -17.9788 0 0
rhand -28.3187 -28.3158 0
rfingers 7.12502 0 0
rthumb -1.69375 -58.2881 0
163
root 8.22926 16.6107 -14.0339 8.16814 9.6865 -0.720423
lfemur -5.87019 8.07046 -14.0811
ltibia 54.2525 0 0
lfoot 2.51013 13.1915 0
ltoes -10.5354 0 0
rfemur -29.4704 1.23328 23.5451
rtibia 31.0438 0 0
rfoot -12.4074 0.262309 0
rtoes -14.946 0 0
lowerback -5.02286 -2.03316 -0.732397
upperback -1.99019 -2.71539 3.58917
thorax 0.974717 -1.34756 3.94971
lowerneck -18.5996 -7.02721 -15.1065
upperneck 14.6736 -8.47255 15.0358
head 8.99298 -3.41434 6.53462
lclavicle 3.60297e-14 -7.95139e-15 0
lhumerus -44.4565 -11.1407 96.4025
lradius 24.8871 0 0
lwrist 1.35588 0 0
lhand -0.454373 -17.8336 0
lfingers 7.12502 0 0
lthumb 25.1551 10.529 0
rclavicle 3.60297e-14 -7.95139e-15 0
rhumerus -45.2086 8.65175 -81.5253
rradius 33.2742 0 0
rwrist -18.1265 0 0
rhand -28.0664 -28.7822 0
rfingers 7.12502 0 0
rthumb -1.45006 -58.757 0
164
root 8.21989 16.6332 -13.912 8.12699 9.49205 -0.875889
lfemur -7.26196 8.14474 -14.2567
ltibia 55.2881 0 0
lfoot 1.64727 12.8133 0
ltoes -11.0403 0 0
rfemur -28.6601 1.35801 23.8243
rtibia 30.4856 0 0
rfoot -12.6699 0.418153 0
rtoes -14.7878 0 0
lowerback -4.96958 -1.85141 -0.571659
upperback -1.91391 -2.48151 3.58192
thorax 1.00214 -1.23149 3.86577
lowerneck -18.5741 -7.07734 -15.0548
upperneck 14.5857 -8.55752 15.0685
head 8.97261 -3.44946 6.52216
lclavicle 3.0795e-14 -1.08669e-14 0
lhumerus -44.8082 -11.6581 96.6556
lradius 25.6242 0 0
lwrist 2.50524 0 0
lhand -0.970104 -18.2893 0
lfingers 7.12502 0 0
lthumb 24.6605 10.1373 0
rclavicle 3.0795e-14 -1.08669e-14 0
rhumerus -44.9359 9.09324 -81.53
rradius 33.8753 0 0
rwrist -18.4262 0 0
rhand -28.3384 -28.1665 0
rfingers 7.12502 0 0
rthumb -1.71271 -58.1385 0
165
root 8.21052 16.6556 -13.79 8.08584 9.2976 -1.03136
lfemur -8.65373 8.21901 -14.4323
ltibia 56.3238 0 0
lfoot 0.78441 12.4351 0
ltoes -11.5452 0 0
rfemur -27.8499 1.48273 24.1035
rtibia 29.9274 0 0
rfoot -12.9324 0.573996 0
rtoes -14.6297 0 0
lowerback -4.9163 -1.66965 -0.410921
upperback -1.83763 -2.24762 3.57467
thorax 1.02955 -1.11541 3.78182
lowerneck -18.5486 -7.12748 -15.0031
upperneck 14.4979 -8.64248 15.1011
head 8.95224 -3.48458 6.5097
lclavicle 2.55604e-14 -1.37824e-14 0
lhumerus -45.16 -12.1755 96.9087
lradius 26.3614 0 0
lwrist 3.65461 0 0
lhand -1.48584 -18.7451 0
lfingers 7.12502 0 0
lthumb 24.1658 9.74556 0
rclavicle 2.55604e-14 -1.37824e-14 0
rhumerus -44.6631 9.53473 -81.5347
rradius 34.4765 0 0
rwrist -18.7259 0 0
rhand -28.6103 -27.5507 0
rfingers 7.12502 0 0
rthumb -1.97536 -57.52 0
166
root 8.20115 16.6781 -13.6681 8.04468 9.10315 -1.18682
lfemur -10.0455 8.29329 -14.6079
ltibia 57.3594 0 0
lfoot -0.07845 12.0569 0
ltoes -12.0501 0 0
rfemur -27.0396 1.60746 24.3826
rtibia 29.3692 0 0
rfoot -13.1949 0.729839 0
rtoes -14.4716 0 0
lowerback -4.86303 -1.4879 -0.250184
upperback -1.76135 -2.01374 3.56742
thorax 1.05697 -0.99934 3.69788
lowerneck -18.5232 -7.17761 -14.9514
upperneck 14.41 -8.72744 15.1337
head 8.93186 -3.5197 6.49724
lclavicle 2.03257e-14 -1.66979e-14 0
lhumerus -45.5117 -12.6929 97.1618
lradius 27.0985 0 0
lwrist 4.80397 0 0
lhand -2.00157 -19.2008 0
lfingers 7.12502 0 0
lthumb 23.6712 9.35384 0
rclavicle 2.03257e-14 -1.66979e-14 0
rhumerus -44.3903 9.97622 -81.5394
rradius 35.0777 0 0
rwrist -19.0256 0 0
rhand -28.8823 -26.935 0
rfingers 7.12502 0 0
rthumb -2.23801 -56.9014 0
167
root 8.19178 16.7006 -13.5462 8.00353 8.9087 -1.34229
lfemur -11.4373 8.36757 -14.7836
ltibia 58.395 0 0
lfoot -0.94131 11.6787 0
ltoes -12.5551 0 0
rfemur -26.2293 1.73219 24.6618
rtibia 28.8109 0 0
rfoot -13.4573 0.885683 0
rtoes -14.3134 0 0
lowerback -4.80975 -1.30615 -0.0894457
upperback -1.68507 -1.77985 3.56016
thorax 1.08439 -0.883266 3.61394
lowerneck -18.4977 -7.22774 -14.8997
upperneck 14.3221 -8.81241 15.1664
head 8.91149 -3.55482 6.48478
lclavicle 1.50911e-14 -1.96134e-14 0
lhumerus -45.8634 -13.2104 97.4149
lradius 27.8356 0 0
lwrist 5.95334 0 0
lhand -2.5173 -19.6565 0
lfingers 7.12502 0 0
lthumb 23.1765 8.96212 0
rclavicle 1.50911e-14 -1.96134e-14 0
rhumerus -44.1176 10.4177 -81.5441
rradius 35.6788 0 0
rwrist -19.3253 0 0
rhand -29.1543 -26.3192 0
rfingers 7.12502 0 0
rthumb -2.50066 -56.2829 0
168
root 8.18241 16.723 -13.4242 7.96238 8.71425 -1.49775
lfemur -12.829 8.44184 -14.9592
ltibia 59.4307 0 0
lfoot -1.80417 11.3005 0
ltoes -13.06 0 0
rfemur -25.4191 1.85691 24.941
rtibia 28.2527 0 0
rfoot -13.7198 1.04153 0
rtoes -14.1553 0 0
lowerback -4.75647 -1.12439 0.0712922
upperback -1.60879 -1.54596 3.55291
thorax 1.11181 -0.767193 3.52999
lowerneck -18.4722 -7.27788 -14.848
upperneck 14.2343 -8.89738 15.199
head 8.89112 -3.58994 6.47232
lclavicle 9.8564e-15 -2.25289e-14 0
lhumerus -46.2152 -13.7278 97.668
lradius 28.5728 0 0
lwrist 7.10271 0 0
lhand -3.03303 -20.1123 0
lfingers 7.12502 0 0
lthumb 22.6819 8.5704 0
rclavicle 9.8564e-15 -2.25289e-14 0
rhumerus -43.8448 10.8592 -81.5488
rradius 36.2799 0 0
rwrist -19.625 0 0
rhand -29.4262 -25.7035 0
rfingers 7.12502 0 0
rthumb -2.76331 -55.6644 0
169
root 8.17304 16.7455 -13.3023 7.92123 8.5198 -1.65322
lfemur -14.2208 8.51612 -15.1348
ltibia 60.4663 0 0
lfoot -2.66703 10.9223 0
ltoes -13.5649 0 0
rfemur -24.6088 1.98164 25.2202
rtibia 27.6945 0 0
rfoot -13.9823 1.19737 0
rtoes -13.9971 0 0
lowerback -4.70319 -0.94264 0.23203
upperback -1.53251 -1.31208 3.54566
thorax 1.13923 -0.651119 3.44605
lowerneck -18.4467 -7.32801 -14.7963
upperneck 14.1464 -8.98234 15.2317
head 8.87075 -3.62506 6.45986
lclavicle 4.62174e-15 -2.54444e-14 0
lhumerus -46.5669 -14.2452 97.9211
lradius 29.3099 0 0
lwrist 8.25207 0 0
lhand -3.54876 -20.568 0
lfingers 7.12502 0 0
lthumb 22.1872 8.17868 0
rclavicle 4.62174e-15 -2.54444e-14 0
rhumerus -43.5721 11.3007 -81.5535
rradius 36.8811 0 0
rwrist -19.9247 0 0
rhand -29.6982 -25.0877 0
rfingers 7.12502 0 0
rthumb -3.02596 -55.0459 0
